<mxfile host="app.diagrams.net" modified="2022-05-03T09:55:59.070Z" agent="5.0 (X11; Linux x86_64) AppleWebKit/537.36 (KHTML, like Gecko) Chrome/101.0.4951.41 Safari/537.36" etag="HqECzvr-bcIhb8DMpymn" version="17.5.0" type="github">
  <diagram id="GgezcjghUWvOxsfXaFAf" name="Page-1">
    <mxGraphModel dx="1952" dy="693" grid="1" gridSize="10" guides="1" tooltips="1" connect="1" arrows="1" fold="1" page="1" pageScale="1" pageWidth="827" pageHeight="1169" math="0" shadow="0">
      <root>
        <mxCell id="0" />
        <mxCell id="1" parent="0" />
        <mxCell id="qU1hQiKX_713lMygHPAb-162" value="" style="edgeStyle=none;rounded=0;orthogonalLoop=1;jettySize=auto;html=1;fontSize=18;startArrow=none;startFill=0;endArrow=none;endFill=0;strokeWidth=2;shape=link;entryX=0.5;entryY=0.5;entryDx=0;entryDy=0;entryPerimeter=0;" edge="1" parent="1" source="qU1hQiKX_713lMygHPAb-47" target="qU1hQiKX_713lMygHPAb-5">
          <mxGeometry relative="1" as="geometry" />
        </mxCell>
        <mxCell id="qU1hQiKX_713lMygHPAb-98" value="" style="edgeStyle=none;rounded=0;orthogonalLoop=1;jettySize=auto;html=1;fontSize=18;endArrow=none;endFill=0;strokeWidth=2;" edge="1" parent="1" source="qU1hQiKX_713lMygHPAb-1" target="qU1hQiKX_713lMygHPAb-10">
          <mxGeometry relative="1" as="geometry" />
        </mxCell>
        <mxCell id="qU1hQiKX_713lMygHPAb-101" value="" style="edgeStyle=none;rounded=0;orthogonalLoop=1;jettySize=auto;html=1;fontSize=18;endArrow=none;endFill=0;strokeWidth=2;" edge="1" parent="1" source="qU1hQiKX_713lMygHPAb-1" target="qU1hQiKX_713lMygHPAb-100">
          <mxGeometry relative="1" as="geometry" />
        </mxCell>
        <mxCell id="qU1hQiKX_713lMygHPAb-117" value="" style="edgeStyle=none;rounded=0;orthogonalLoop=1;jettySize=auto;html=1;fontSize=18;endArrow=none;endFill=0;strokeWidth=2;" edge="1" parent="1" source="qU1hQiKX_713lMygHPAb-1" target="qU1hQiKX_713lMygHPAb-74">
          <mxGeometry relative="1" as="geometry" />
        </mxCell>
        <mxCell id="qU1hQiKX_713lMygHPAb-1" value="&lt;b&gt;&lt;font style=&quot;font-size: 18px&quot;&gt;Songs&lt;/font&gt;&lt;/b&gt;" style="rounded=0;whiteSpace=wrap;html=1;movable=1;resizable=1;rotatable=1;deletable=1;editable=1;connectable=1;" vertex="1" parent="1">
          <mxGeometry x="90" y="580" width="100" height="50" as="geometry" />
        </mxCell>
        <mxCell id="qU1hQiKX_713lMygHPAb-2" value="&lt;b&gt;&lt;font style=&quot;font-size: 18px&quot;&gt;Play Lists&lt;/font&gt;&lt;/b&gt;" style="rounded=0;whiteSpace=wrap;html=1;" vertex="1" parent="1">
          <mxGeometry x="-250" y="465" width="100" height="50" as="geometry" />
        </mxCell>
        <mxCell id="qU1hQiKX_713lMygHPAb-3" value="&lt;b&gt;Contains&lt;/b&gt;" style="rhombus;whiteSpace=wrap;html=1;fontSize=18;" vertex="1" parent="1">
          <mxGeometry x="-140" y="525" width="140" height="60" as="geometry" />
        </mxCell>
        <mxCell id="qU1hQiKX_713lMygHPAb-28" style="edgeStyle=none;rounded=0;orthogonalLoop=1;jettySize=auto;html=1;exitX=0;exitY=0.5;exitDx=0;exitDy=0;entryX=1;entryY=0.5;entryDx=0;entryDy=0;fontSize=18;endArrow=none;endFill=0;strokeWidth=2;startArrow=classic;startFill=1;" edge="1" parent="1" source="qU1hQiKX_713lMygHPAb-4" target="qU1hQiKX_713lMygHPAb-17">
          <mxGeometry relative="1" as="geometry" />
        </mxCell>
        <mxCell id="qU1hQiKX_713lMygHPAb-4" value="&lt;b&gt;&lt;font style=&quot;font-size: 18px&quot;&gt;Genres&lt;br&gt;&lt;/font&gt;&lt;/b&gt;" style="rounded=0;whiteSpace=wrap;html=1;" vertex="1" parent="1">
          <mxGeometry x="255" y="695" width="100" height="50" as="geometry" />
        </mxCell>
        <mxCell id="qU1hQiKX_713lMygHPAb-5" value="&lt;b&gt;&lt;font style=&quot;font-size: 18px&quot;&gt;Albums&lt;br&gt;&lt;/font&gt;&lt;/b&gt;" style="rounded=0;whiteSpace=wrap;html=1;" vertex="1" parent="1">
          <mxGeometry x="355" y="620" width="100" height="50" as="geometry" />
        </mxCell>
        <mxCell id="qU1hQiKX_713lMygHPAb-152" style="edgeStyle=orthogonalEdgeStyle;rounded=0;orthogonalLoop=1;jettySize=auto;html=1;entryX=0;entryY=0.5;entryDx=0;entryDy=0;fontSize=18;endArrow=none;endFill=0;strokeWidth=2;exitX=0;exitY=0.5;exitDx=0;exitDy=0;" edge="1" parent="1" source="qU1hQiKX_713lMygHPAb-6" target="qU1hQiKX_713lMygHPAb-149">
          <mxGeometry relative="1" as="geometry">
            <Array as="points">
              <mxPoint x="280" y="475" />
              <mxPoint x="280" y="395" />
            </Array>
          </mxGeometry>
        </mxCell>
        <mxCell id="qU1hQiKX_713lMygHPAb-153" style="edgeStyle=orthogonalEdgeStyle;rounded=0;orthogonalLoop=1;jettySize=auto;html=1;exitX=1;exitY=0.5;exitDx=0;exitDy=0;entryX=1;entryY=0.5;entryDx=0;entryDy=0;fontSize=18;endArrow=none;endFill=0;strokeWidth=2;" edge="1" parent="1" source="qU1hQiKX_713lMygHPAb-6" target="qU1hQiKX_713lMygHPAb-149">
          <mxGeometry relative="1" as="geometry">
            <Array as="points">
              <mxPoint x="460" y="475" />
              <mxPoint x="460" y="395" />
            </Array>
          </mxGeometry>
        </mxCell>
        <mxCell id="qU1hQiKX_713lMygHPAb-161" value="" style="edgeStyle=none;rounded=0;orthogonalLoop=1;jettySize=auto;html=1;fontSize=18;startArrow=classic;startFill=1;endArrow=none;endFill=0;strokeWidth=2;" edge="1" parent="1" source="qU1hQiKX_713lMygHPAb-6" target="qU1hQiKX_713lMygHPAb-47">
          <mxGeometry relative="1" as="geometry" />
        </mxCell>
        <mxCell id="qU1hQiKX_713lMygHPAb-6" value="&lt;b&gt;&lt;font style=&quot;font-size: 18px&quot;&gt;Artists&lt;/font&gt;&lt;/b&gt;" style="rounded=0;whiteSpace=wrap;html=1;" vertex="1" parent="1">
          <mxGeometry x="320" y="450" width="100" height="50" as="geometry" />
        </mxCell>
        <mxCell id="qU1hQiKX_713lMygHPAb-8" value="&lt;b&gt;&lt;font style=&quot;font-size: 18px&quot;&gt;Users&lt;/font&gt;&lt;/b&gt;" style="rounded=0;whiteSpace=wrap;html=1;" vertex="1" parent="1">
          <mxGeometry x="100" y="390" width="100" height="50" as="geometry" />
        </mxCell>
        <mxCell id="qU1hQiKX_713lMygHPAb-29" style="edgeStyle=none;rounded=0;orthogonalLoop=1;jettySize=auto;html=1;exitX=1;exitY=0.5;exitDx=0;exitDy=0;entryX=0;entryY=0.5;entryDx=0;entryDy=0;fontSize=18;endArrow=none;endFill=0;strokeWidth=2;" edge="1" parent="1" source="qU1hQiKX_713lMygHPAb-9" target="qU1hQiKX_713lMygHPAb-17">
          <mxGeometry relative="1" as="geometry" />
        </mxCell>
        <mxCell id="qU1hQiKX_713lMygHPAb-9" value="&lt;b&gt;&lt;font style=&quot;font-size: 18px&quot;&gt;Rank Lists&lt;/font&gt;&lt;/b&gt;" style="rounded=0;whiteSpace=wrap;html=1;" vertex="1" parent="1">
          <mxGeometry x="-80" y="695" width="100" height="50" as="geometry" />
        </mxCell>
        <mxCell id="qU1hQiKX_713lMygHPAb-99" value="" style="edgeStyle=none;rounded=0;orthogonalLoop=1;jettySize=auto;html=1;fontSize=18;endArrow=none;endFill=0;strokeWidth=2;" edge="1" parent="1" source="qU1hQiKX_713lMygHPAb-10" target="qU1hQiKX_713lMygHPAb-9">
          <mxGeometry relative="1" as="geometry" />
        </mxCell>
        <mxCell id="qU1hQiKX_713lMygHPAb-10" value="&lt;b&gt;Scores&lt;/b&gt;" style="rhombus;whiteSpace=wrap;html=1;fontSize=18;" vertex="1" parent="1">
          <mxGeometry x="-20" y="630" width="140" height="60" as="geometry" />
        </mxCell>
        <mxCell id="qU1hQiKX_713lMygHPAb-140" value="" style="edgeStyle=none;rounded=0;orthogonalLoop=1;jettySize=auto;html=1;fontSize=18;endArrow=classic;endFill=1;strokeWidth=2;" edge="1" parent="1" source="qU1hQiKX_713lMygHPAb-11" target="qU1hQiKX_713lMygHPAb-8">
          <mxGeometry relative="1" as="geometry" />
        </mxCell>
        <mxCell id="qU1hQiKX_713lMygHPAb-144" value="" style="edgeStyle=none;rounded=0;orthogonalLoop=1;jettySize=auto;html=1;fontSize=18;endArrow=none;endFill=0;strokeWidth=2;shape=link;" edge="1" parent="1" target="qU1hQiKX_713lMygHPAb-2">
          <mxGeometry relative="1" as="geometry">
            <mxPoint x="-90" y="450" as="sourcePoint" />
          </mxGeometry>
        </mxCell>
        <mxCell id="qU1hQiKX_713lMygHPAb-11" value="&lt;b&gt;Creates&lt;/b&gt;" style="rhombus;whiteSpace=wrap;html=1;fontSize=18;" vertex="1" parent="1">
          <mxGeometry x="-130" y="410" width="140" height="60" as="geometry" />
        </mxCell>
        <mxCell id="qU1hQiKX_713lMygHPAb-145" value="" style="edgeStyle=none;rounded=0;orthogonalLoop=1;jettySize=auto;html=1;fontSize=18;endArrow=classic;endFill=1;strokeWidth=2;exitX=0;exitY=0.5;exitDx=0;exitDy=0;" edge="1" parent="1" source="qU1hQiKX_713lMygHPAb-12" target="qU1hQiKX_713lMygHPAb-2">
          <mxGeometry relative="1" as="geometry" />
        </mxCell>
        <mxCell id="qU1hQiKX_713lMygHPAb-12" value="&lt;b&gt;Favorites&lt;/b&gt;" style="rhombus;whiteSpace=wrap;html=1;fontSize=18;" vertex="1" parent="1">
          <mxGeometry x="-80" y="455" width="140" height="60" as="geometry" />
        </mxCell>
        <mxCell id="qU1hQiKX_713lMygHPAb-142" value="" style="edgeStyle=none;rounded=0;orthogonalLoop=1;jettySize=auto;html=1;fontSize=18;endArrow=none;endFill=0;strokeWidth=2;" edge="1" parent="1" source="qU1hQiKX_713lMygHPAb-13" target="qU1hQiKX_713lMygHPAb-8">
          <mxGeometry relative="1" as="geometry" />
        </mxCell>
        <mxCell id="qU1hQiKX_713lMygHPAb-13" value="&lt;b&gt;Likes&lt;/b&gt;" style="rhombus;whiteSpace=wrap;html=1;fontSize=18;" vertex="1" parent="1">
          <mxGeometry x="-160" y="350" width="140" height="60" as="geometry" />
        </mxCell>
        <mxCell id="qU1hQiKX_713lMygHPAb-108" value="" style="edgeStyle=none;rounded=0;orthogonalLoop=1;jettySize=auto;html=1;fontSize=18;endArrow=none;endFill=0;strokeWidth=2;shape=link;exitX=0.464;exitY=0.5;exitDx=0;exitDy=0;exitPerimeter=0;" edge="1" parent="1" source="qU1hQiKX_713lMygHPAb-15" target="qU1hQiKX_713lMygHPAb-1">
          <mxGeometry relative="1" as="geometry" />
        </mxCell>
        <mxCell id="qU1hQiKX_713lMygHPAb-160" value="" style="rounded=0;orthogonalLoop=1;jettySize=auto;html=1;fontSize=18;startArrow=none;startFill=0;endArrow=classic;endFill=1;strokeWidth=2;" edge="1" parent="1" source="qU1hQiKX_713lMygHPAb-15" target="qU1hQiKX_713lMygHPAb-5">
          <mxGeometry relative="1" as="geometry" />
        </mxCell>
        <mxCell id="qU1hQiKX_713lMygHPAb-15" value="&lt;b&gt;Publishes&lt;/b&gt;" style="rhombus;whiteSpace=wrap;html=1;fontSize=18;" vertex="1" parent="1">
          <mxGeometry x="215" y="560" width="140" height="60" as="geometry" />
        </mxCell>
        <mxCell id="qU1hQiKX_713lMygHPAb-17" value="&lt;b&gt;Tops of&lt;/b&gt;" style="rhombus;whiteSpace=wrap;html=1;fontSize=18;" vertex="1" parent="1">
          <mxGeometry x="70" y="690" width="140" height="60" as="geometry" />
        </mxCell>
        <mxCell id="qU1hQiKX_713lMygHPAb-137" value="" style="edgeStyle=none;rounded=0;orthogonalLoop=1;jettySize=auto;html=1;fontSize=18;endArrow=none;endFill=0;strokeWidth=2;" edge="1" parent="1" source="qU1hQiKX_713lMygHPAb-18" target="qU1hQiKX_713lMygHPAb-8">
          <mxGeometry relative="1" as="geometry" />
        </mxCell>
        <mxCell id="qU1hQiKX_713lMygHPAb-18" value="&lt;b&gt;Reviews&lt;/b&gt;" style="rhombus;whiteSpace=wrap;html=1;fontSize=18;movable=1;resizable=1;rotatable=1;deletable=1;editable=1;connectable=1;" vertex="1" parent="1">
          <mxGeometry y="500" width="140" height="60" as="geometry" />
        </mxCell>
        <mxCell id="qU1hQiKX_713lMygHPAb-103" value="" style="edgeStyle=none;rounded=0;orthogonalLoop=1;jettySize=auto;html=1;fontSize=18;endArrow=none;endFill=0;strokeWidth=1;dashed=1;" edge="1" parent="1" source="qU1hQiKX_713lMygHPAb-19" target="qU1hQiKX_713lMygHPAb-10">
          <mxGeometry relative="1" as="geometry" />
        </mxCell>
        <mxCell id="qU1hQiKX_713lMygHPAb-19" value="rank" style="rounded=0;whiteSpace=wrap;html=1;fontSize=18;" vertex="1" parent="1">
          <mxGeometry x="-90" y="630" width="60" height="20" as="geometry" />
        </mxCell>
        <mxCell id="qU1hQiKX_713lMygHPAb-47" value="&lt;b&gt;Releases&lt;/b&gt;" style="rhombus;whiteSpace=wrap;html=1;fontSize=18;" vertex="1" parent="1">
          <mxGeometry x="400" y="530" width="140" height="60" as="geometry" />
        </mxCell>
        <mxCell id="qU1hQiKX_713lMygHPAb-136" value="" style="edgeStyle=none;rounded=0;orthogonalLoop=1;jettySize=auto;html=1;fontSize=18;endArrow=none;endFill=0;strokeWidth=2;" edge="1" parent="1" source="qU1hQiKX_713lMygHPAb-74" target="qU1hQiKX_713lMygHPAb-8">
          <mxGeometry relative="1" as="geometry" />
        </mxCell>
        <mxCell id="qU1hQiKX_713lMygHPAb-74" value="&lt;b&gt;lastest play&lt;/b&gt;" style="rhombus;whiteSpace=wrap;html=1;fontSize=18;" vertex="1" parent="1">
          <mxGeometry x="160" y="500" width="140" height="60" as="geometry" />
        </mxCell>
        <mxCell id="qU1hQiKX_713lMygHPAb-102" value="" style="edgeStyle=none;rounded=0;orthogonalLoop=1;jettySize=auto;html=1;fontSize=18;endArrow=none;endFill=0;strokeWidth=2;" edge="1" parent="1" source="qU1hQiKX_713lMygHPAb-100" target="qU1hQiKX_713lMygHPAb-4">
          <mxGeometry relative="1" as="geometry" />
        </mxCell>
        <mxCell id="qU1hQiKX_713lMygHPAb-100" value="&lt;b&gt;Belongs to&lt;/b&gt;" style="rhombus;whiteSpace=wrap;html=1;fontSize=18;" vertex="1" parent="1">
          <mxGeometry x="160" y="630" width="140" height="60" as="geometry" />
        </mxCell>
        <mxCell id="qU1hQiKX_713lMygHPAb-129" value="" style="endArrow=none;html=1;rounded=0;fontSize=18;strokeWidth=2;" edge="1" parent="1" source="qU1hQiKX_713lMygHPAb-1" target="qU1hQiKX_713lMygHPAb-18">
          <mxGeometry width="50" height="50" relative="1" as="geometry">
            <mxPoint x="20" y="570" as="sourcePoint" />
            <mxPoint x="70" y="520" as="targetPoint" />
          </mxGeometry>
        </mxCell>
        <mxCell id="qU1hQiKX_713lMygHPAb-135" value="" style="endArrow=none;html=1;rounded=0;fontSize=18;strokeWidth=2;entryX=1;entryY=1;entryDx=0;entryDy=0;" edge="1" parent="1" source="qU1hQiKX_713lMygHPAb-1" target="qU1hQiKX_713lMygHPAb-3">
          <mxGeometry width="50" height="50" relative="1" as="geometry">
            <mxPoint x="-120" y="610" as="sourcePoint" />
            <mxPoint x="-30" y="570" as="targetPoint" />
          </mxGeometry>
        </mxCell>
        <mxCell id="qU1hQiKX_713lMygHPAb-139" value="" style="endArrow=none;html=1;rounded=0;fontSize=18;strokeWidth=2;exitX=0.707;exitY=0.207;exitDx=0;exitDy=0;exitPerimeter=0;" edge="1" parent="1" source="qU1hQiKX_713lMygHPAb-12" target="qU1hQiKX_713lMygHPAb-8">
          <mxGeometry width="50" height="50" relative="1" as="geometry">
            <mxPoint x="-10" y="480" as="sourcePoint" />
            <mxPoint x="40" y="430" as="targetPoint" />
          </mxGeometry>
        </mxCell>
        <mxCell id="qU1hQiKX_713lMygHPAb-146" value="" style="endArrow=none;html=1;rounded=0;fontSize=18;strokeWidth=2;exitX=0.3;exitY=0.201;exitDx=0;exitDy=0;exitPerimeter=0;entryX=1;entryY=1;entryDx=0;entryDy=0;" edge="1" parent="1" source="qU1hQiKX_713lMygHPAb-3" target="qU1hQiKX_713lMygHPAb-2">
          <mxGeometry width="50" height="50" relative="1" as="geometry">
            <mxPoint x="-250" y="540" as="sourcePoint" />
            <mxPoint x="-200" y="490" as="targetPoint" />
          </mxGeometry>
        </mxCell>
        <mxCell id="qU1hQiKX_713lMygHPAb-147" value="" style="endArrow=none;html=1;rounded=0;fontSize=18;strokeWidth=2;" edge="1" parent="1" source="qU1hQiKX_713lMygHPAb-2" target="qU1hQiKX_713lMygHPAb-13">
          <mxGeometry width="50" height="50" relative="1" as="geometry">
            <mxPoint x="-150" y="430" as="sourcePoint" />
            <mxPoint x="-100" y="380" as="targetPoint" />
          </mxGeometry>
        </mxCell>
        <mxCell id="qU1hQiKX_713lMygHPAb-149" value="&lt;b&gt;Groups&lt;/b&gt;" style="rhombus;whiteSpace=wrap;html=1;fontSize=18;" vertex="1" parent="1">
          <mxGeometry x="300" y="365" width="140" height="60" as="geometry" />
        </mxCell>
      </root>
    </mxGraphModel>
  </diagram>
</mxfile>
